{"title":"AVATAR 2009 TS.XVID-EDiteD.CLEAR.Multi-subs","uid":5283924,"size":1441196641,"categoryP":"video","categoryS":"movies","magnet":"?xt=urn:btih:9052f2296d249a8a44dd88c2f0fefd86ca874320&amp;dn=AVATAR+2009+TS.XVID-EDiteD.CLEAR.Multi-subs&amp;tr=udp%3A%2F%2Ftracker.openbittorrent.com%3A80&amp;tr=udp%3A%2F%2Fopen.demonii.com%3A1337&amp;tr=udp%3A%2F%2Ftracker.coppersurfer.tk%3A6969&amp;tr=udp%3A%2F%2Fexodus.desync.com%3A6969","seeders":0,"leechers":0,"uploader":"sorterunwary","files":3,"time":1263649343,"description":"\n\nVideo Codec.......: XVID Release Date......:22/12/09\nAudio Codec.......:MP3 Theatre\nDate......:17/12/09\nAudio Bitrate.....:128 Runtime.......:2h 34mn\nSubtitles.........:ENG Language..........:ENGLISH\nResolution...... 720 x 304 IMDb URL..........:http://www.imdb.com/title/tt0499549/\n\n\nDETAILS:\n\nVideo\nID : 0\nFormat : MPEG-4 Visual\nFormat profile : Advanced Simple@L5\nFormat settings, BVOP : Yes\nFormat settings, QPel : No\nFormat settings, GMC : No warppoints\nFormat settings, Matrix : Default (MPEG)\nMuxing mode : Packed bitstream\nCodec ID : XVID\nCodec ID/Hint : XviD\nDuration : 2h 34mn\nBit rate : 1 754 Kbps\nWidth : 720 pixels\nHeight : 304 pixels\nDisplay aspect ratio : 2.35\nFrame rate : 25.000 fps\nResolution : 24 bits\nColorimetry : 4:2:0\nScan type : Progressive\nBits/(Pixel*Frame) : 0.321\nStream size : 1.89 GiB (93%)\nWriting library : XviD 1.2.1 (UTC 2008-12-04)\n\nAudio\nID : 1\nFormat : MPEG Audio\nFormat version : Version 1\nFormat profile : Layer 3\nCodec ID : 55\nCodec ID/Hint : MP3\nDuration : 2h 34mn\nBit rate mode : Constant\nBit rate : 128 Kbps\nChannel(s) : 2 channels\nSampling rate : 48.0 KHz\nResolution : 16 bits\nStream size : 141 MiB (7%)\nAlignment : Split accross interleaves\nInterleave, duration : 40 ms (1.00 video frame)\nInterleave, preload duration : 500 ms\n\nPLOT:\nAvatar is the story of an ex-Marine who finds himself thrust into hostilities on an alien planet filled with exotic life forms. As an Avatar, a human mind in an alien body, he finds himself torn between two worlds, in a desperate fight for his own survival and that of the indigenous people. More than ten years in the making, Avatar marks Cameron's return to feature directing since helming 1997's Titanic, the highest grossing film of all time and winner of eleven OscarsÃ‚Â® including Best Picture. WETA Digital, renowned for its work in The Lord of the Rings Trilogy and King Kong, will incorporate new intuitive CGI technologies to transform the environments and characters into photorealistic 3D imagery that will transport the audience into the alien world rich with imaginative vistas, creatures and characters.","torrent":{"xt":"urn:btih:9052f2296d249a8a44dd88c2f0fefd86ca874320","amp;dn":"AVATAR+2009+TS.XVID-EDiteD.CLEAR.Multi-subs","amp;tr":["udp%3A%2F%2Ftracker.openbittorrent.com%3A80","udp%3A%2F%2Fopen.demonii.com%3A1337","udp%3A%2F%2Ftracker.coppersurfer.tk%3A6969","udp%3A%2F%2Fexodus.desync.com%3A6969"],"infoHash":"9052f2296d249a8a44dd88c2f0fefd86ca874320","infoHashBuffer":{"type":"Buffer","data":[144,82,242,41,109,36,154,138,68,221,136,194,240,254,253,134,202,135,67,32]},"announce":[],"urlList":[]}}